<svg width="15" height="15" viewBox="0 0 15 15" fill="none" xmlns="http://www.w3.org/2000/svg">
<path d="M3.375 14.5H0.46875V5.15625H3.375V14.5ZM1.90625 3.90625C1 3.90625 0.25 3.125 0.25 2.1875C0.25 1.28125 1 0.53125 1.90625 0.53125C2.84375 0.53125 3.59375 1.28125 3.59375 2.1875C3.59375 3.125 2.84375 3.90625 1.90625 3.90625ZM14.2188 14.5H11.3438V9.96875C11.3438 8.875 11.3125 7.5 9.8125 7.5C8.3125 7.5 8.09375 8.65625 8.09375 9.875V14.5H5.1875V5.15625H7.96875V6.4375H8C8.40625 5.71875 9.34375 4.9375 10.75 4.9375C13.6875 4.9375 14.25 6.875 14.25 9.375V14.5H14.2188Z" fill="current"/>
</svg>
