<svg width="17" height="13" viewBox="0 0 17 13" fill="none" xmlns="http://www.w3.org/2000/svg">
<path d="M14.5938 3.25C14.5938 3.40625 14.5938 3.53125 14.5938 3.6875C14.5938 8.03125 11.3125 13 5.28125 13C3.40625 13 1.6875 12.4688 0.25 11.5312C0.5 11.5625 0.75 11.5938 1.03125 11.5938C2.5625 11.5938 3.96875 11.0625 5.09375 10.1875C3.65625 10.1562 2.4375 9.21875 2.03125 7.90625C2.25 7.9375 2.4375 7.96875 2.65625 7.96875C2.9375 7.96875 3.25 7.90625 3.5 7.84375C2 7.53125 0.875 6.21875 0.875 4.625V4.59375C1.3125 4.84375 1.84375 4.96875 2.375 5C1.46875 4.40625 0.90625 3.40625 0.90625 2.28125C0.90625 1.65625 1.0625 1.09375 1.34375 0.625C2.96875 2.59375 5.40625 3.90625 8.125 4.0625C8.0625 3.8125 8.03125 3.5625 8.03125 3.3125C8.03125 1.5 9.5 0.03125 11.3125 0.03125C12.25 0.03125 13.0938 0.40625 13.7188 1.0625C14.4375 0.90625 15.1562 0.625 15.7812 0.25C15.5312 1.03125 15.0312 1.65625 14.3438 2.0625C15 2 15.6562 1.8125 16.2188 1.5625C15.7812 2.21875 15.2188 2.78125 14.5938 3.25Z" fill="current"/>
</svg>
